{"glyphs":{"0":{"ha":568,"x_min":0,"x_max":0,"o":"m 76 272 b 110 101 75 211 79 150 b 631 776 282 -174 663 457 b 397 951 619 886 546 1038 b 76 272 158 811 86 497 z m 208 201 b 297 700 171 325 232 550 b 533 761 361 847 514 950 b 208 201 561 501 264 28 z "},"1":{"ha":383,"x_min":0,"x_max":0,"o":"m 328 714 b 249 25 306 611 83 29 b 310 133 317 24 304 93 b 529 857 343 356 435 640 b 574 940 544 893 560 904 b 558 1006 586 968 582 993 b 482 983 535 1018 503 1006 b 463 958 475 975 469 968 b 176 725 397 857 289 774 b 151 671 151 714 133 700 b 328 714 183 626 285 682 z "},"2":{"ha":757,"x_min":0,"x_max":0,"o":"m 271 190 b 528 382 364 261 447 318 b 596 988 782 583 1001 971 b 203 801 465 993 313 918 b 193 733 185 782 171 750 b 265 753 204 724 242 719 b 678 846 332 846 633 940 b 99 218 775 632 249 336 b 46 128 68 194 43 163 b 215 61 51 54 153 57 b 510 97 349 71 376 89 b 681 90 569 101 615 40 b 271 190 911 274 356 200 z "},"3":{"ha":756,"x_min":0,"x_max":0,"o":"m 314 763 b 732 832 415 858 679 940 b 393 592 786 718 503 542 b 314 500 360 607 310 535 b 369 456 318 474 342 457 b 449 467 385 454 432 464 b 557 251 551 485 689 371 b 171 167 468 171 265 103 b 118 46 67 233 51 92 b 664 510 360 -118 956 264 b 636 536 653 518 644 526 b 838 722 714 590 796 633 b 203 792 1013 1099 358 1022 b 181 697 179 757 167 724 b 254 692 197 661 229 653 b 314 763 271 718 292 742 z "},"4":{"ha":718,"x_min":0,"x_max":0,"o":"m 719 578 b 799 947 744 635 808 901 b 731 950 793 978 753 976 b 594 588 701 914 619 644 b 249 513 472 556 358 518 b 322 664 274 564 293 614 b 401 800 349 710 378 754 b 336 892 460 914 386 964 b 154 372 267 792 -31 415 b 546 444 239 353 446 419 b 469 79 524 363 461 153 b 551 57 474 42 521 -1 b 682 458 604 157 638 350 b 719 578 779 483 775 528 z "},"5":{"ha":638,"x_min":0,"x_max":0,"o":"m 267 842 b 97 476 231 756 101 551 b 188 431 96 425 136 400 b 414 571 274 481 340 550 b 365 242 675 647 589 365 b 156 174 279 194 193 164 b 75 118 99 190 67 176 b 238 51 83 40 156 32 b 379 644 638 144 892 839 b 243 578 333 626 288 603 b 350 835 278 664 315 749 b 704 861 483 851 594 850 b 744 969 786 869 801 947 b 267 842 676 994 186 1010 z "},"6":{"ha":738,"x_min":0,"x_max":0,"o":"m 333 571 b 563 868 400 668 476 783 b 500 926 679 983 606 1022 b 49 240 317 760 78 472 b 231 24 33 111 92 14 b 333 571 654 54 1117 804 z m 214 343 b 631 519 261 483 514 567 b 232 138 740 474 397 143 b 214 343 139 135 193 283 z "},"7":{"ha":581,"x_min":0,"x_max":0,"o":"m 508 851 b 115 210 342 668 196 433 b 104 71 100 168 85 106 b 178 68 121 43 149 36 b 203 108 189 81 197 93 b 693 835 307 344 468 654 b 729 872 707 846 719 857 b 593 974 796 968 653 981 b 264 919 488 961 369 944 b 258 839 186 901 143 839 b 508 851 338 836 419 844 z "},"8":{"ha":615,"x_min":0,"x_max":0,"o":"m 200 538 b 67 232 132 456 79 328 b 583 518 7 -247 786 261 b 551 551 574 531 560 539 b 692 811 614 643 663 707 b 226 796 781 1129 386 982 b 200 538 140 694 142 625 z m 310 508 b 479 458 371 492 431 497 b 194 257 607 353 149 8 b 310 508 210 344 253 431 z m 438 849 b 561 768 533 892 618 899 b 465 589 539 715 500 654 b 385 606 438 594 411 597 b 443 713 410 639 460 674 b 271 636 413 782 310 669 b 438 849 193 667 310 790 z "},"9":{"ha":697,"x_min":0,"x_max":0,"o":"m 554 454 b 383 129 507 350 453 226 b 461 88 290 -3 374 -24 b 772 822 613 282 794 600 b 540 988 761 946 681 1025 b 554 454 114 871 -194 74 z m 626 692 b 239 440 608 551 368 421 b 564 881 117 461 394 840 b 626 692 658 903 636 753 z "},"\u0000":{"ha":0,"x_min":0,"x_max":0,"o":""},"\r":{"ha":494,"x_min":0,"x_max":0,"o":""}," ":{"ha":494,"x_min":0,"x_max":0,"o":""},"%":{"ha":800,"x_min":0,"x_max":0,"o":"m 346 769 b 753 800 415 825 869 938 b 326 315 611 632 443 508 b 307 125 289 254 251 136 b 374 185 353 117 364 143 b 546 467 390 281 476 386 b 739 922 624 556 1058 936 b 522 890 669 919 592 904 b 233 768 403 868 253 771 l 207 749 b 119 575 154 703 119 638 b 449 733 122 340 593 640 b 346 769 419 751 381 760 z m 268 722 b 399 676 310 706 354 692 b 268 722 281 547 131 550 z m 676 450 b 528 110 561 428 419 161 b 750 247 583 83 688 160 b 676 450 806 326 782 469 z m 588 200 b 644 354 590 250 610 308 b 694 292 676 397 725 336 b 588 200 668 251 631 221 z "},"&":{"ha":922,"x_min":0,"x_max":0,"o":"m 624 383 b 513 550 583 415 526 496 b 718 729 588 610 656 658 b 793 843 751 765 775 803 b 639 1028 844 972 768 1067 b 381 588 446 969 356 754 b 390 539 385 571 388 556 b 82 268 296 460 143 375 b 100 75 39 192 40 117 b 636 225 244 -25 485 122 b 790 118 657 207 771 122 b 839 160 814 113 839 133 b 728 289 838 197 757 272 l 729 297 b 946 610 815 371 938 501 b 774 606 958 736 792 708 l 789 581 b 624 383 747 504 688 442 z m 528 306 b 193 164 444 249 282 143 b 410 476 33 203 356 433 b 528 306 447 418 489 361 z m 489 607 b 701 806 407 942 868 1064 b 489 607 651 726 568 661 z "},"'":{"ha":238,"x_min":0,"x_max":0,"o":"m 249 835 b 256 800 246 821 240 806 b 356 1007 328 775 374 971 b 317 1024 347 1022 336 1026 b 272 965 288 1018 276 993 z "},"(":{"ha":374,"x_min":0,"x_max":0,"o":"m 240 -64 b 299 11 286 -76 332 -40 b 279 499 218 136 240 339 b 481 999 317 656 393 851 b 513 1099 496 1025 528 1071 b 474 1113 506 1111 492 1119 b 386 1029 442 1100 407 1057 b 110 110 181 757 56 403 b 240 -64 122 39 156 -58 z "},")":{"ha":456,"x_min":0,"x_max":0,"o":"m 472 651 b 354 1118 492 783 468 1078 b 292 1103 336 1125 310 1124 b 282 1035 269 1078 276 1060 b 322 638 314 896 353 800 b 65 74 281 428 194 240 b 26 14 50 54 35 36 b 57 -60 7 -28 17 -60 b 336 221 147 -60 290 132 b 472 651 403 350 453 513 z "},"*":{"ha":499,"x_min":0,"x_max":0,"o":"m 468 856 b 603 932 499 869 597 904 b 574 956 607 953 590 956 b 476 931 542 956 507 943 b 485 1042 481 960 506 1015 b 429 1011 472 1057 447 1051 b 404 935 421 992 411 967 b 357 988 385 950 375 971 b 306 993 344 1000 326 1006 b 340 851 258 964 325 875 b 246 776 311 828 271 806 b 236 744 239 767 232 754 b 346 778 254 714 322 761 l 326 690 b 342 640 324 674 322 642 b 415 768 379 638 406 740 b 472 732 433 756 454 746 b 518 796 513 711 549 753 b 468 856 494 829 494 825 z "},"+":{"ha":553,"x_min":0,"x_max":0,"o":"m 421 464 b 404 619 429 500 458 621 b 361 585 382 619 369 604 b 325 467 343 546 336 506 b 171 422 289 467 189 478 b 188 381 165 404 172 388 b 304 361 222 365 265 368 b 288 231 299 336 275 246 b 347 231 293 201 328 204 b 394 368 367 257 385 336 b 550 417 428 371 540 371 b 517 457 556 440 539 453 b 421 464 486 464 453 460 z "},",":{"ha":346,"x_min":0,"x_max":0,"o":"m 110 64 b 256 236 194 31 251 151 b 153 215 257 311 158 293 b 110 64 150 167 133 111 z "},"-":{"ha":506,"x_min":0,"x_max":0,"o":"m 454 375 b 460 460 522 396 522 449 b 243 456 403 469 303 468 b 231 363 174 444 124 365 b 454 375 289 361 397 357 z "},".":{"ha":396,"x_min":0,"x_max":0,"o":"m 126 201 b 258 210 89 88 250 107 b 126 201 264 290 158 292 z "},"/":{"ha":476,"x_min":0,"x_max":0,"o":"m 82 143 b 49 -15 36 39 31 -1 b 165 93 94 -44 147 61 b 694 908 325 372 500 644 b 747 1054 718 942 790 1028 b 492 819 697 1085 524 861 b 82 143 325 607 188 381 z "},";":{"ha":331,"x_min":0,"x_max":0,"o":"m 124 129 b 269 301 208 96 265 217 b 167 281 271 376 172 358 b 124 129 164 232 146 176 z m 217 544 b 347 553 178 431 339 450 b 217 544 353 633 249 635 z "},"<":{"ha":410,"x_min":0,"x_max":0,"o":"m 268 399 b 435 592 300 431 499 553 b 353 569 410 608 385 589 b 182 454 290 531 197 468 b 154 349 142 418 118 383 b 304 206 194 308 254 238 b 361 264 342 183 369 232 b 268 399 351 315 293 363 z "},"=":{"ha":1157,"x_min":0,"x_max":0,"o":"m 449 543 b 256 533 424 544 304 546 b 239 449 193 515 171 461 b 431 447 276 440 369 442 b 449 543 564 458 554 539 z m 415 389 b 224 379 390 390 271 392 b 207 294 161 361 138 307 b 397 293 243 286 336 288 b 415 389 531 304 521 385 z "},">":{"ha":443,"x_min":0,"x_max":0,"o":"m 285 378 b 107 258 243 353 133 293 b 126 204 90 236 96 201 b 339 286 167 208 297 264 b 272 585 526 385 349 529 b 206 578 253 599 228 599 b 240 432 157 533 218 467 b 285 378 253 413 269 396 z "},"?":{"ha":674,"x_min":0,"x_max":0,"o":"m 503 989 b 236 917 432 999 290 996 b 229 864 224 900 219 879 b 279 857 240 846 257 849 b 449 874 338 881 392 882 b 540 717 529 861 697 814 b 292 575 463 669 364 632 b 332 340 117 439 263 192 b 390 496 360 400 314 456 b 657 651 481 543 578 586 b 503 989 886 840 656 968 z m 314 171 b 194 179 338 249 222 263 b 314 171 168 103 290 92 z "},"_":{"ha":628,"x_min":0,"x_max":0,"o":"m 300 -6 b 567 31 361 -6 538 -24 b 494 104 590 76 544 101 b 133 97 385 108 242 108 b 115 -6 35 86 19 -4 b 300 -6 176 -7 239 -6 z "},"~":{"ha":760,"x_min":0,"x_max":0,"o":"m 356 443 b 367 356 360 414 361 385 b 715 424 404 147 653 303 b 632 447 772 531 683 540 b 488 333 593 379 535 339 b 465 418 472 350 468 383 b 453 510 464 453 463 489 b 135 335 388 614 182 447 b 203 306 118 299 172 274 b 356 443 239 326 311 410 z "},"^":{"ha":454,"x_min":0,"x_max":0,"o":"m 418 908 b 519 771 419 871 444 708 b 510 846 544 790 510 821 b 476 1039 510 888 535 1025 b 421 1018 456 1043 432 1032 b 240 793 358 949 308 858 b 246 763 226 783 222 769 b 418 908 286 751 397 886 z "},"]":{"ha":342,"x_min":0,"x_max":0,"o":"m 142 81 b 71 -67 -50 53 1 -83 b 243 4 132 -51 218 -78 b 325 453 269 89 306 347 b 467 996 360 638 400 813 b 239 1051 533 1179 247 1113 b 354 996 232 992 311 999 b 142 81 253 692 192 386 z "},"}":{"ha":450,"x_min":0,"x_max":0,"o":"m 243 561 b 146 364 175 488 142 463 b 78 58 149 299 175 100 b 22 -10 49 44 26 26 b 256 142 13 -111 233 -57 b 256 408 265 233 253 319 b 297 468 257 440 265 453 b 478 550 354 494 461 479 b 350 688 506 667 289 567 b 485 1036 400 790 544 938 b 246 1029 424 1138 242 1089 b 371 915 250 967 443 1040 b 243 561 304 801 192 683 z "},"|":{"ha":283,"x_min":0,"x_max":0,"o":"m 108 257 b 49 -61 88 153 58 49 b 149 -71 42 -139 119 -153 b 200 160 171 -1 189 89 b 374 975 225 325 353 776 b 260 957 388 1067 293 1094 b 108 257 201 717 158 497 z "},"{":{"ha":399,"x_min":0,"x_max":0,"o":"m 299 469 b 349 863 538 635 304 760 b 519 1040 392 957 513 1007 b 428 1071 531 1097 467 1088 b 308 969 388 1053 338 1004 b 278 596 121 754 368 665 b 119 454 235 563 124 507 b 194 331 114 368 261 444 b 75 -43 129 217 -37 61 b 344 49 147 -111 347 -56 b 315 72 344 64 339 79 b 211 42 281 64 246 42 b 299 469 18 42 422 294 z "},"[":{"ha":368,"x_min":0,"x_max":0,"o":"m 175 61 b 343 994 267 372 308 685 b 464 1078 376 997 533 1007 b 251 1022 433 1110 260 1132 b 161 426 238 828 200 624 b 63 -18 142 331 58 50 b 213 -64 67 -101 149 -76 b 301 40 263 -54 382 -24 b 238 61 283 54 261 58 b 175 61 217 64 196 61 z "},"\\":{"ha":515,"x_min":0,"x_max":0,"o":"m 376 108 b 374 818 411 351 410 589 b 263 1083 365 863 328 1104 b 231 935 207 1064 226 971 b 269 74 264 653 275 365 b 317 -49 268 40 257 -68 b 376 108 343 -37 360 1 z "},"÷":{"ha":517,"x_min":0,"x_max":0,"o":"m 300 346 b 508 389 346 347 496 343 b 311 440 525 444 360 439 b 207 346 135 442 122 350 b 300 346 236 344 268 346 z m 236 242 b 338 253 221 165 325 192 b 236 242 353 322 250 306 z m 357 490 b 379 579 414 486 453 579 b 357 490 313 579 297 493 z "},"×":{"ha":481,"x_min":0,"x_max":0,"o":"m 226 392 b 118 247 185 357 111 300 b 268 332 150 218 239 307 b 435 244 294 303 382 186 b 354 410 469 283 378 383 b 451 506 424 450 460 482 b 318 469 417 542 378 499 b 271 514 303 483 288 503 b 226 392 206 556 172 474 z "},"µ":{"ha":525,"x_min":0,"x_max":0,"o":"m 325 310 b 326 224 325 281 324 251 b 424 154 331 178 364 111 b 451 319 458 178 438 271 b 532 565 476 403 504 483 b 517 615 539 588 539 608 b 397 504 482 625 443 571 b 240 346 331 407 256 299 b 356 565 244 438 333 481 b 224 590 375 640 269 671 b 144 407 190 535 172 465 b 51 218 114 344 81 282 b 156 188 7 119 99 89 b 193 257 169 210 179 233 b 325 310 246 236 288 264 z "},"¶":{"ha":633,"x_min":0,"x_max":0,"o":"m 613 715 b 704 797 646 721 786 743 b 421 800 690 806 456 801 b 217 750 354 797 282 788 b 225 513 83 674 115 546 b 133 168 201 450 129 219 b 231 176 139 110 214 104 b 401 696 274 364 336 557 l 406 703 b 525 706 446 711 486 708 b 363 156 489 621 365 233 b 419 153 360 83 399 104 b 613 715 489 339 553 528 z "},"¢":{"ha":667,"x_min":0,"x_max":0,"o":"m 549 754 b 546 928 556 786 600 921 b 393 715 468 938 468 753 b 301 258 119 581 -118 204 b 315 54 293 186 258 68 b 371 100 326 51 363 54 l 411 290 b 674 467 444 307 697 411 b 632 475 672 471 671 489 l 444 397 b 526 660 454 453 496 611 b 539 575 554 640 508 575 b 549 754 588 575 685 711 z m 389 619 b 324 361 365 533 346 447 b 203 353 283 346 240 343 b 389 619 78 386 343 589 z "},"£":{"ha":753,"x_min":0,"x_max":0,"o":"m 360 538 b 338 669 350 581 340 625 b 478 793 331 743 407 806 b 489 656 554 781 472 701 b 525 657 499 651 514 656 l 540 667 b 543 889 631 736 626 853 b 243 754 439 935 301 871 b 243 517 201 672 228 592 b 165 494 217 508 190 503 b 103 436 135 485 104 472 b 249 399 101 385 215 399 b 172 186 258 344 250 206 b 19 106 132 176 24 156 b 57 71 17 81 36 72 b 111 72 74 69 93 69 b 647 94 297 96 465 94 b 701 169 688 94 719 136 b 339 221 660 249 433 226 l 381 417 b 569 431 472 406 550 407 b 360 538 651 553 422 538 z "},"¥":{"ha":742,"x_min":0,"x_max":0,"o":"m 401 599 b 157 526 354 585 189 549 b 160 474 118 517 108 468 b 340 500 219 481 281 492 b 246 406 318 453 301 417 b 86 329 217 400 78 369 b 144 325 90 308 129 321 b 242 332 174 332 213 329 b 142 89 199 251 160 175 b 217 36 133 47 169 -28 b 390 328 285 128 331 232 b 442 361 403 350 418 360 b 681 385 518 365 603 371 b 663 461 749 396 699 456 b 556 464 629 467 592 464 b 474 460 528 464 501 461 b 517 524 489 481 503 501 b 788 564 560 525 769 526 b 767 610 797 585 783 603 b 583 625 739 621 621 625 b 803 915 622 675 782 871 b 761 971 821 954 803 979 b 500 715 711 961 539 760 b 290 896 472 779 396 956 b 257 854 272 886 258 874 b 308 804 254 819 292 824 b 401 599 353 750 376 665 z "},"`":{"ha":292,"x_min":0,"x_max":0,"o":"m 347 982 b 296 1014 338 1006 324 1024 b 261 978 278 1007 267 997 b 389 832 249 933 322 769 b 390 869 403 846 394 857 z "},"@":{"ha":1000,"x_min":0,"x_max":0,"o":"m 661 418 b 763 354 678 372 696 331 b 1013 586 868 393 953 485 b 594 956 1217 929 931 1118 b 146 78 256 792 -58 361 b 882 164 301 -137 650 8 b 931 240 907 182 933 208 b 858 263 926 278 892 275 b 606 165 779 232 692 193 b 658 868 -35 -39 208 660 b 756 438 1054 1050 1028 614 b 757 568 757 468 789 551 b 518 428 726 585 568 454 b 729 639 544 501 646 629 b 632 706 842 650 822 821 b 496 318 472 608 293 263 b 661 418 554 333 611 383 z "},"A":{"ha":1033,"x_min":0,"x_max":0,"o":"m 907 453 b 947 968 935 585 993 857 b 763 1022 918 1038 843 1063 b 293 431 551 918 390 624 b 132 403 244 425 182 417 b 82 356 108 396 85 381 b 239 318 75 301 206 318 b 161 118 214 251 183 186 b 172 69 153 94 149 78 b 349 322 226 50 324 276 b 739 346 408 328 638 342 b 774 -43 725 260 683 -14 b 835 -10 803 -53 824 -44 b 892 367 863 71 871 269 l 975 367 b 1042 419 1029 365 1046 407 b 907 453 1033 442 996 451 z m 758 468 b 419 450 646 463 532 454 b 424 464 421 454 422 460 b 789 910 475 576 679 850 b 825 899 814 924 819 922 b 758 468 846 822 776 565 z "},"B":{"ha":1356,"x_min":0,"x_max":0,"o":"m 367 97 b 194 89 310 96 251 89 b 63 111 147 89 107 115 b 21 3 3 106 -24 31 b 386 -49 100 -44 325 4 b 449 -47 408 -68 419 -71 b 556 -15 488 -15 513 -21 b 1240 286 763 11 1081 115 b 832 618 1550 615 1043 646 b 1149 864 931 678 1069 754 b 1013 1051 1243 997 1118 1044 b 490 910 833 1064 661 1014 b 338 776 460 892 347 807 b 354 742 332 757 336 747 b 429 797 385 733 407 779 b 876 974 521 871 719 954 b 925 790 1081 997 1114 926 b 628 639 828 722 710 663 b 610 639 622 638 615 638 b 632 742 618 674 626 707 b 606 836 638 776 651 831 b 492 618 542 843 507 660 b 417 554 471 564 456 581 b 443 451 342 504 394 464 z m 483 103 b 571 483 504 229 538 357 b 886 519 651 500 771 517 b 907 210 1232 528 1301 374 b 483 103 761 150 603 118 z "},"C":{"ha":997,"x_min":0,"x_max":0,"o":"m 75 390 b 67 213 61 325 58 265 b 868 236 126 -168 597 -31 b 928 304 889 257 911 281 b 796 357 1001 418 890 475 b 432 126 696 232 576 156 b 386 731 6 33 189 519 b 635 915 464 813 550 882 b 701 674 897 1019 835 831 b 667 588 664 629 661 601 b 717 576 674 572 700 569 b 913 786 792 601 881 714 b 811 1029 967 906 922 1006 b 615 996 747 1042 682 1025 b 75 390 376 892 132 642 z "},"D":{"ha":1060,"x_min":0,"x_max":0,"o":"m 444 940 b 326 471 403 801 361 610 b 276 399 317 436 308 415 b 104 -36 101 311 -117 56 b 250 -50 144 -51 204 -56 b 907 294 494 -18 708 96 b 607 1047 1286 679 1049 1058 b 549 1056 586 1047 568 1054 b 422 1017 536 1057 475 1036 b 222 849 339 985 260 943 b 253 785 210 813 215 785 b 444 940 300 785 319 932 z m 574 953 b 375 82 1354 950 865 196 l 444 400 b 461 460 547 424 582 468 z m 294 331 b 244 56 281 233 261 151 b 294 331 7 -21 151 258 z "},"E":{"ha":1083,"x_min":0,"x_max":0,"o":"m 386 617 b 101 128 189 526 -19 308 b 590 10 193 -6 415 -36 b 1014 275 743 49 928 131 b 917 354 1061 358 994 449 b 453 113 801 215 624 122 b 361 518 203 100 24 260 b 808 654 476 607 643 621 b 864 717 842 661 861 683 b 810 761 867 751 843 764 b 749 749 792 760 768 753 b 435 800 681 733 274 675 b 922 901 533 875 832 989 b 986 899 939 886 961 882 b 978 967 1025 926 992 949 b 868 1043 947 1011 931 1036 b 386 617 549 1075 82 736 z "},"F":{"ha":946,"x_min":0,"x_max":0,"o":"m 456 892 b 339 553 417 779 379 665 b 132 489 304 544 156 506 b 136 431 104 468 107 436 b 311 454 171 424 265 454 b 263 3 290 350 203 79 b 424 478 369 -131 503 358 b 875 518 569 518 733 521 b 904 593 976 518 1015 571 b 447 579 757 622 604 597 b 550 913 482 690 517 801 b 1001 904 624 919 972 953 b 939 1036 1079 975 985 1025 b 236 938 739 1082 450 1011 b 232 861 181 918 181 861 b 456 892 308 861 378 879 z "},"G":{"ha":1051,"x_min":0,"x_max":0,"o":"m 746 132 b 917 4 747 71 840 -97 b 885 144 928 19 885 110 b 926 426 881 236 900 332 b 903 551 1125 413 1056 542 b 492 492 819 557 569 538 b 500 407 440 463 458 417 b 778 418 582 389 690 418 b 229 436 604 -42 128 64 b 539 853 276 611 382 743 b 911 904 644 928 831 1001 b 857 690 879 822 832 772 b 1014 661 874 638 964 586 b 999 721 1036 697 1006 693 b 1117 999 1004 788 1083 928 b 972 976 1149 1065 1047 1081 b 661 1022 849 1024 826 1071 b 254 43 239 899 -146 261 b 746 132 425 -50 569 8 z "},"H":{"ha":1157,"x_min":0,"x_max":0,"o":"m 1060 690 b 1151 1001 1090 789 1135 906 b 1040 978 1160 1061 1086 1076 b 921 686 994 881 960 783 l 486 622 b 549 996 500 688 558 951 b 464 992 539 1035 486 1033 b 356 600 415 901 394 710 b 110 538 310 592 121 583 b 310 389 94 476 333 503 b 260 50 288 282 256 154 b 376 31 264 -57 365 -17 b 467 526 415 196 431 363 b 879 564 604 540 742 560 b 793 47 847 439 790 226 b 907 17 793 -61 890 -61 b 913 82 913 42 913 61 b 1026 564 911 229 1001 503 b 1108 561 1054 564 1081 560 b 1060 690 1174 564 1260 679 z "},"I":{"ha":829,"x_min":0,"x_max":0,"o":"m 929 926 b 1028 908 988 926 953 867 b 985 1043 1122 957 1090 1035 b 263 967 899 1050 339 1008 b 268 881 218 942 221 886 b 539 892 350 871 453 886 b 392 511 488 769 432 646 b 314 104 336 332 338 276 b 86 60 238 93 163 82 b 32 -26 22 42 -49 -46 b 688 -19 253 26 474 -21 b 689 86 779 -18 747 64 b 403 108 613 115 490 108 b 667 904 486 374 560 642 b 929 926 754 911 843 928 z "},"J":{"ha":826,"x_min":0,"x_max":0,"o":"m 788 972 l 789 957 b 508 176 750 722 729 358 b 247 311 332 31 121 122 b 640 550 326 429 519 515 b 681 594 665 557 679 568 b 583 625 685 643 619 632 b 131 318 425 592 214 483 b 551 54 -7 39 313 -108 b 883 933 821 238 883 672 b 888 981 883 950 885 964 b 1042 947 944 981 1003 918 b 1043 1064 1085 979 1063 1038 b 944 1107 1022 1092 983 1107 b 218 968 847 1107 285 1022 b 218 897 188 943 190 908 b 788 972 240 888 725 961 z "},"K":{"ha":907,"x_min":0,"x_max":0,"o":"m 447 461 b 964 811 606 553 833 683 b 938 875 1031 879 1000 917 b 425 546 756 753 624 642 b 485 974 449 692 492 829 b 379 963 479 1074 399 1078 b 286 550 356 824 324 688 b 114 336 138 536 -8 379 b 236 342 156 322 192 336 b 179 63 222 249 197 157 b 292 44 157 -68 244 -111 b 388 389 326 158 347 276 b 660 65 475 299 538 100 b 864 171 738 44 831 89 b 869 197 868 179 867 189 b 732 181 829 178 769 160 b 447 461 649 231 535 386 z "},"L":{"ha":822,"x_min":0,"x_max":0,"o":"m 228 464 b 158 575 192 500 175 528 b 126 603 154 589 146 606 b 210 358 42 589 115 379 b 178 107 201 275 188 192 b 36 4 132 92 19 65 b 81 -25 40 -15 58 -25 b 103 -24 86 -25 97 -25 b 651 54 289 8 468 40 b 739 64 679 56 708 56 b 718 163 833 86 775 151 b 292 135 604 185 417 156 b 325 350 306 207 313 278 b 589 526 432 375 529 435 b 343 908 875 961 525 1215 b 228 464 265 779 260 604 z m 340 454 b 365 653 347 521 356 585 b 407 838 374 714 382 776 b 592 847 464 994 590 967 b 340 454 592 718 511 490 z "},"M":{"ha":814,"x_min":0,"x_max":0,"o":"m 622 504 b 635 482 651 551 643 526 b 600 33 611 346 549 142 b 746 61 635 -43 756 -29 b 939 1014 713 375 843 696 b 949 1065 943 1031 949 1049 b 876 1113 946 1096 911 1129 b 357 297 794 1074 506 397 b 269 599 213 200 260 554 b 258 908 282 656 347 919 b 203 871 232 906 215 896 b 147 554 188 839 154 601 b -1 28 129 381 57 200 b 7 -19 -10 6 -11 -7 b 181 268 65 -57 161 226 b 222 210 196 250 206 228 b 622 504 335 81 486 243 z "},"N":{"ha":826,"x_min":0,"x_max":0,"o":"m 283 431 b 514 -6 310 278 361 63 b 715 74 590 -39 669 -7 b 775 275 749 136 764 204 b 914 944 813 499 856 721 b 925 1003 919 964 924 983 b 831 1022 929 1054 868 1067 b 654 396 735 908 676 533 b 618 190 643 325 635 258 b 471 231 579 44 506 158 b 444 815 393 399 410 682 b 476 926 454 853 469 890 b 444 994 483 960 483 989 b 361 933 403 1000 378 967 b 176 429 304 815 228 567 b 26 58 129 304 88 181 b 19 43 25 53 21 47 b 101 53 4 -17 79 26 b 283 431 182 150 235 308 z "},"O":{"ha":993,"x_min":0,"x_max":0,"o":"m 1060 793 b 104 518 1076 1310 213 988 b 215 272 74 390 115 321 b 242 224 246 258 242 256 b 532 -11 242 60 340 -75 b 1060 793 818 85 1051 538 z m 374 268 b 807 607 503 344 700 432 b 731 638 861 692 803 708 b 399 408 608 518 518 458 b 514 721 403 513 479 621 b 501 765 521 739 515 757 b 272 400 418 810 282 460 l 264 388 b 842 971 26 489 496 1038 b 390 183 1238 894 501 -175 b 374 268 382 211 378 240 z "},"P":{"ha":1082,"x_min":0,"x_max":0,"o":"m 457 347 b 496 511 467 401 482 457 b 518 896 508 567 599 904 b 479 865 500 894 486 881 b 331 308 435 775 365 428 b 333 -12 315 257 246 -28 b 433 240 389 -3 424 190 b 1143 639 636 301 964 389 b 1140 942 1224 750 1222 864 b 194 878 961 1110 422 1108 b 346 669 53 735 294 576 b 281 811 365 706 290 765 b 1076 697 597 1051 1260 968 b 457 347 946 503 685 424 z "},"Q":{"ha":1011,"x_min":0,"x_max":0,"o":"m 801 1 b 860 83 838 -3 893 50 b 678 117 825 119 713 118 b 929 396 772 203 860 290 b 1076 764 1003 508 1064 640 b 106 549 1138 1349 196 993 b 271 314 76 403 108 311 b 297 88 260 233 263 153 b 81 -21 278 85 -28 44 b 111 -28 88 -25 103 -29 b 801 1 206 -17 625 18 z m 438 524 b 556 747 461 586 518 689 b 460 746 611 833 514 808 b 319 501 404 682 346 576 b 293 472 314 486 310 476 b 253 483 278 469 258 469 b 961 851 128 763 899 1186 b 928 629 972 788 956 696 b 517 156 863 475 682 233 b 397 346 390 96 383 263 b 424 375 401 361 411 367 b 718 629 501 425 668 556 b 658 686 776 715 732 739 b 438 524 607 650 490 556 z "},"R":{"ha":1082,"x_min":0,"x_max":0,"o":"m 371 185 b 899 149 394 257 749 235 b 989 118 928 133 946 96 b 1003 243 1036 140 1039 207 b 665 329 935 307 764 319 b 1158 897 828 408 1303 640 b 440 1024 1051 1086 660 1081 b 171 840 340 997 229 935 b 221 757 133 778 175 739 b 243 806 242 764 258 788 b 424 922 301 863 347 901 b 274 329 374 725 322 526 b 242 167 115 278 117 165 b 371 185 204 -107 314 -51 z m 410 353 b 531 939 450 540 499 751 b 1011 689 668 997 1207 938 b 410 353 910 561 617 379 z "},"S":{"ha":938,"x_min":0,"x_max":0,"o":"m 301 104 l 293 90 b 876 290 229 -158 753 35 b 250 514 1047 644 394 450 b 243 590 214 531 214 554 b 906 918 364 744 733 958 b 646 764 822 836 746 811 b 704 682 575 731 586 654 b 1000 1039 838 713 1164 914 b 874 1061 967 1063 921 1064 b 189 410 438 1042 -110 515 b 719 428 282 378 572 442 b 701 265 842 417 801 342 b 301 104 586 178 394 114 z "},"T":{"ha":614,"x_min":0,"x_max":0,"o":"m 531 925 b 311 35 436 653 346 318 b 440 39 300 -46 406 -62 b 461 117 449 63 456 89 b 646 951 515 372 564 703 b 1072 976 721 961 982 1008 b 1138 1008 1111 964 1124 944 b 1025 1111 1150 1068 1088 1104 b 269 1018 803 1138 371 996 b 218 999 246 1024 235 1025 b 531 925 128 856 469 921 z "},"U":{"ha":826,"x_min":0,"x_max":0,"o":"m 656 -24 b 689 44 703 -7 696 0 b 897 757 675 232 783 592 b 1018 943 940 818 981 879 b 1032 1060 1039 978 1068 1036 b 911 989 988 1088 938 1024 b 689 639 828 878 772 746 b 199 143 596 513 336 206 b 421 882 -35 36 361 824 b 457 960 442 901 449 933 b 440 1021 464 981 460 1013 b 350 965 407 1035 369 992 b 39 104 204 764 -25 321 b 253 28 67 13 149 -25 b 592 332 378 90 479 215 b 656 -24 563 249 494 -86 z "},"V":{"ha":508,"x_min":0,"x_max":0,"o":"m 300 383 b 233 889 339 540 319 858 b 169 814 185 906 118 854 b 150 94 332 683 213 299 b 138 38 144 75 138 57 b 189 -21 136 4 156 -18 b 326 208 282 -28 306 144 b 811 997 454 586 731 900 l 831 1019 b 801 1086 853 1050 836 1089 b 754 1067 788 1085 771 1078 b 300 383 735 1054 522 885 z "},"W":{"ha":1153,"x_min":0,"x_max":0,"o":"m 476 346 b 1151 996 449 -464 1349 333 b 1088 1039 1136 1044 1108 1044 b 1051 954 1067 1033 1044 1017 b 881 264 1068 783 1063 503 b 613 333 744 85 586 99 b 718 685 625 454 661 569 b 732 714 724 693 729 706 b 711 782 739 739 731 769 b 643 772 690 796 665 790 b 321 251 611 747 363 313 b 201 335 208 86 164 135 b 310 728 226 465 265 596 b 393 967 336 806 374 889 b 399 1019 399 982 400 1006 b 333 1032 392 1047 360 1064 b 269 910 314 1018 282 935 b 46 126 175 710 32 325 b 265 53 56 0 143 -58 b 476 346 346 126 415 258 z "},"Z":{"ha":1068,"x_min":0,"x_max":0,"o":"m 315 179 b 611 454 389 265 522 382 b 949 490 640 478 899 489 b 747 556 906 560 822 543 b 1168 1039 836 643 1329 925 b 353 876 1054 1121 483 960 b 338 806 324 858 311 824 l 357 810 b 1075 932 383 856 1039 971 b 619 575 926 810 774 693 b 396 501 549 519 468 565 b 385 463 383 490 381 476 b 478 463 393 440 456 458 b 211 176 400 361 286 286 b 149 126 192 149 181 138 b -7 14 104 110 -14 69 b 46 -12 -4 -11 22 -17 b 817 93 156 4 618 108 b 879 -1 856 90 885 82 b 932 199 953 4 1046 138 b 315 179 781 279 497 215 z "},"Y":{"ha":900,"x_min":0,"x_max":0,"o":"m 792 389 b 828 656 804 482 822 569 b 883 793 831 707 849 750 b 981 946 925 839 957 889 b 971 1024 992 983 990 1010 b 868 992 946 1049 896 1019 b 783 840 824 950 796 900 b 758 788 779 821 775 804 b 464 482 667 690 567 563 b 218 508 372 408 97 244 b 503 922 286 654 393 782 b 528 960 513 935 521 946 b 531 1011 540 979 542 997 b 439 988 510 1047 468 1008 b 183 671 342 890 254 788 b 97 464 146 607 113 539 b 279 279 72 328 151 249 b 465 369 342 293 407 328 b 749 624 567 439 671 526 b 708 396 747 546 743 471 b 331 269 593 386 456 360 b 250 -4 235 201 113 58 b 721 244 411 -75 615 88 b 761 326 735 268 747 294 b 818 319 781 325 800 322 b 897 344 846 315 889 301 b 792 389 901 371 864 382 z m 681 324 b 418 94 611 222 521 133 b 354 204 310 56 225 110 b 681 324 438 264 583 322 z "},"X":{"ha":761,"x_min":0,"x_max":0,"o":"m 563 625 b 969 999 632 704 939 963 b 976 1057 985 1017 992 1042 b 925 1056 964 1069 940 1063 b 521 718 825 1007 654 840 b 390 990 511 744 460 901 b 257 996 344 1049 288 1063 b 279 881 242 964 250 894 b 394 618 326 858 374 674 b -56 65 274 510 11 208 b -50 -3 -68 39 -67 11 b 44 42 -14 -31 19 7 b 426 508 119 142 331 422 b 568 -1 460 433 540 82 b 669 47 594 -74 667 -28 b 563 625 672 201 607 482 z "},"a":{"ha":693,"x_min":0,"x_max":0,"o":"m 793 365 b 735 375 801 392 792 403 b 515 490 557 289 539 313 b 489 525 513 508 508 521 b 293 565 417 539 432 604 b 185 176 -33 474 -42 72 b 429 379 271 217 367 306 b 447 329 435 361 439 346 b 624 247 481 254 531 210 b 793 365 682 271 778 329 z m 222 313 b 167 361 153 265 126 283 b 410 468 217 457 368 532 b 222 313 350 414 290 357 z "},"b":{"ha":525,"x_min":0,"x_max":0,"o":"m 218 460 b 326 888 246 600 289 747 b 308 944 335 917 338 935 b 214 872 267 960 229 904 b 65 215 132 696 46 392 b 153 129 72 165 107 143 b 313 178 201 114 261 165 b 621 374 382 194 594 299 b 597 383 624 385 619 397 b 374 264 521 333 419 265 b 307 532 510 350 522 689 b 218 460 282 514 254 492 z m 263 267 b 293 450 149 185 214 360 b 376 419 351 514 411 514 b 263 267 353 361 296 289 z "},"c":{"ha":435,"x_min":0,"x_max":0,"o":"m 313 481 b 297 574 338 319 481 624 b 76 172 142 531 -68 263 b 521 349 204 93 456 268 b 496 383 560 400 531 406 b 133 274 406 324 231 240 b 313 481 42 306 253 486 z "},"d":{"ha":540,"x_min":0,"x_max":0,"o":"m 350 261 b 360 42 344 204 318 75 b 424 61 383 22 408 26 b 572 633 468 164 540 504 b 663 971 601 744 643 861 b 633 1013 665 992 654 1011 b 588 983 611 1014 599 1004 b 421 557 554 928 425 561 b 256 569 381 590 311 590 b 43 267 135 524 36 382 b 350 261 54 101 242 157 z m 167 346 b 399 483 185 450 354 588 b 379 413 407 467 394 429 b 167 346 332 365 140 193 z "},"f":{"ha":406,"x_min":0,"x_max":0,"o":"m 239 421 b 285 639 260 490 288 571 b 217 639 283 676 236 675 b 147 433 186 576 169 499 b 83 419 125 429 104 428 b 74 333 32 401 22 340 l 111 329 b 89 -189 90 229 -58 -174 b 314 83 183 -199 285 10 b 332 331 347 169 358 243 b 493 369 379 331 440 346 b 492 406 513 383 513 407 b 239 421 429 401 274 358 z m 211 322 b 126 -86 356 261 208 11 b 211 322 136 50 174 186 z "},"g":{"ha":643,"x_min":0,"x_max":0,"o":"m 494 308 b 538 474 500 375 524 417 b 474 536 557 550 482 515 b 100 292 375 644 -72 438 b 204 256 128 269 165 258 b 404 310 279 251 331 278 l 393 251 b -37 -62 258 160 64 63 b 431 35 -315 -396 260 -403 b 483 236 456 100 467 169 b 729 360 519 260 717 350 b 728 388 740 368 744 385 b 494 308 671 397 558 335 z m 371 167 b 63 -42 258 -300 -236 -297 b 371 167 158 40 264 103 z m 426 453 b 163 375 360 358 215 315 b 426 453 235 439 360 474 z "},"e":{"ha":458,"x_min":0,"x_max":0,"o":"m 139 282 b 385 442 236 296 325 358 b 42 329 514 621 144 622 b 121 144 13 246 42 165 b 540 342 233 114 453 250 b 522 383 565 368 574 408 b 139 282 436 342 128 156 z m 147 357 b 311 479 169 424 242 483 b 147 357 289 419 204 374 z "},"h":{"ha":575,"x_min":0,"x_max":0,"o":"m 179 311 b 326 375 201 385 322 500 b 385 135 329 303 268 139 b 667 368 474 132 618 263 b 642 378 676 390 664 396 b 435 403 506 263 388 168 b 207 464 461 532 324 542 b 313 938 231 575 307 822 b 193 919 317 1021 214 994 b 94 508 161 801 126 628 b 14 233 71 417 39 325 b 50 113 1 188 -7 118 b 179 311 126 106 156 231 z "},"i":{"ha":381,"x_min":0,"x_max":0,"o":"m 468 360 b 449 379 489 388 472 397 b 196 444 311 289 78 100 b 160 507 210 488 189 506 b 51 282 97 508 50 326 b 128 161 51 221 81 176 b 468 360 244 124 368 242 z m 150 615 b 239 628 135 547 226 556 b 150 615 250 688 163 678 z "},"k":{"ha":554,"x_min":0,"x_max":0,"o":"m 219 333 b 485 528 274 350 551 457 b 214 450 428 585 286 488 b 307 901 236 551 290 800 b 218 931 318 965 263 999 b 22 214 165 851 40 310 b 54 92 14 158 -3 93 b 119 165 72 92 93 107 b 163 276 138 203 151 243 b 321 190 206 236 257 200 b 642 354 421 175 579 240 b 601 367 667 400 643 393 b 219 333 471 288 326 247 z "},"j":{"ha":281,"x_min":0,"x_max":0,"o":"m 172 325 b 183 443 174 349 183 419 b 79 440 185 496 103 500 b 63 313 68 414 68 344 b 18 249 58 275 54 265 b -258 -262 -187 153 -517 -65 b -93 -258 -214 -296 -158 -308 b 151 246 43 -153 113 100 b 361 356 229 292 296 326 b 351 385 386 367 393 393 b 172 325 285 371 206 335 z m 42 204 b -228 -154 14 126 -111 -306 b 42 204 -322 -32 -81 149 z m 92 582 b 188 593 76 510 174 533 b 92 582 204 665 106 650 z "},"l":{"ha":381,"x_min":0,"x_max":0,"o":"m 447 378 b 201 342 350 303 175 135 b 331 857 218 479 315 810 b 343 931 336 882 343 906 b 310 975 342 953 332 969 b 243 940 283 981 260 964 b 64 356 185 851 83 519 b 475 364 21 1 321 140 b 447 378 493 390 472 397 z "},"m":{"ha":828,"x_min":0,"x_max":0,"o":"m 903 372 b 722 344 815 282 714 196 b 725 460 724 383 726 422 b 560 517 721 563 656 585 b 413 368 500 475 460 421 b 206 460 429 532 364 589 b 171 538 206 486 203 543 b 86 150 89 524 -32 136 b 236 374 168 160 178 283 b 318 376 286 456 335 475 b 363 200 306 299 300 201 b 522 383 411 199 461 304 b 617 383 586 468 631 494 b 613 215 610 331 599 272 b 932 365 656 56 904 256 b 903 372 938 392 921 393 z "},"n":{"ha":583,"x_min":0,"x_max":0,"o":"m 675 344 b 650 374 700 374 694 414 b 503 346 575 307 531 279 b 458 543 482 403 504 476 b 165 429 390 639 265 539 l 183 511 b 117 522 196 569 147 578 b 83 165 85 464 -35 156 b 147 219 111 168 135 194 b 192 314 164 254 178 285 b 390 358 253 450 381 592 b 410 235 392 313 396 265 b 525 207 429 194 476 182 b 675 344 585 239 635 290 z "},"o":{"ha":582,"x_min":0,"x_max":0,"o":"m 449 390 b 294 504 476 488 424 515 b 238 526 271 503 264 525 b 204 521 226 526 215 525 b 54 233 89 475 21 314 b 424 317 107 110 313 150 b 651 354 508 335 567 346 b 660 394 685 357 703 392 b 449 390 582 400 528 397 z m 218 449 b 336 332 206 394 256 333 b 218 449 92 139 75 372 z "},"p":{"ha":504,"x_min":0,"x_max":0,"o":"m 592 347 b 571 378 621 365 628 410 b 296 289 474 322 322 282 b 499 479 350 314 475 389 b 386 579 521 563 461 589 b 217 494 326 571 268 536 b 124 515 214 549 157 583 b -6 -7 57 378 3 115 b 38 -76 -8 -56 11 -76 b 107 13 63 -76 92 -61 b 160 233 124 88 140 160 b 592 347 240 201 442 247 z m 404 494 b 185 311 476 472 308 356 b 404 494 182 393 326 506 z "},"q":{"ha":592,"x_min":0,"x_max":0,"o":"m 290 265 b 103 197 239 253 143 235 b 114 143 75 172 83 146 b 253 156 157 140 210 153 b 253 -154 232 89 133 -204 b 351 175 278 -147 308 36 b 506 196 403 182 454 188 b 543 258 547 200 569 231 b 381 276 514 292 426 276 b 479 557 413 369 449 464 b 468 594 483 574 483 588 b 390 551 439 607 415 569 b 79 293 322 701 -32 401 b 197 297 110 264 156 274 b 290 265 336 379 375 463 z m 165 374 b 344 514 190 436 278 517 b 165 374 310 461 222 397 z "},"r":{"ha":403,"x_min":0,"x_max":0,"o":"m 172 506 b 125 519 163 511 138 522 b 94 471 103 514 97 488 b 31 189 76 393 31 263 b 113 193 32 149 93 144 b 176 406 132 244 140 340 b 269 429 210 465 247 479 b 294 386 276 414 285 399 b 421 413 326 343 397 361 b 396 456 433 440 418 444 b 376 481 386 461 383 468 b 172 506 329 578 314 624 z "},"s":{"ha":468,"x_min":0,"x_max":0,"o":"m 375 400 b 246 408 333 406 290 406 b 203 436 218 410 171 410 b 369 490 243 469 310 490 b 460 524 414 490 446 482 b 82 435 504 674 161 563 b 106 340 57 393 67 354 b 279 332 151 324 221 333 b 283 267 357 329 382 293 b 88 214 207 246 113 256 b 132 143 69 181 104 147 b 375 400 407 104 551 372 z "},"t":{"ha":229,"x_min":0,"x_max":0,"o":"m 6 -4 b 113 31 33 -60 97 -44 b 246 669 138 138 222 586 b 619 672 338 669 536 657 b 635 746 672 682 686 740 b 265 747 515 760 381 744 b 249 908 271 790 307 908 b 153 743 196 908 168 785 b 8 693 144 733 19 750 b 54 660 6 676 26 660 l 128 660 b 0 46 99 517 6 171 b 6 -4 -1 26 0 10 z "},"u":{"ha":678,"x_min":0,"x_max":0,"o":"m 415 381 b 763 350 479 139 575 179 b 740 379 797 383 775 404 b 539 329 668 329 593 264 b 504 460 510 364 507 414 b 438 490 501 504 483 522 b 318 400 394 463 356 431 b 215 456 183 293 114 246 b 219 544 235 496 236 533 b 42 268 150 588 47 394 b 131 167 39 190 78 161 b 347 318 211 175 279 251 b 415 381 371 340 392 361 z "},"v":{"ha":583,"x_min":0,"x_max":0,"o":"m 272 350 b 182 386 164 204 147 210 b 128 508 200 478 190 521 b 76 236 81 497 57 338 b 251 183 94 142 160 101 b 392 364 290 219 363 318 b 664 356 460 274 567 260 b 657 383 692 383 682 396 b 465 442 569 340 476 331 b 489 546 463 479 478 508 b 419 568 501 594 451 611 b 272 350 374 504 319 413 z "},"w":{"ha":713,"x_min":0,"x_max":0,"o":"m 517 383 b 390 318 478 289 401 163 b 413 454 388 363 399 406 b 428 514 418 474 425 493 b 400 550 431 531 421 549 b 350 526 379 551 361 543 b 279 382 317 489 300 429 b 171 385 211 235 125 208 b 219 538 185 433 207 488 b 203 579 224 557 221 572 b 149 561 185 583 165 579 b 67 369 103 511 79 439 b 79 181 54 311 50 232 b 304 293 140 99 256 217 b 426 157 306 215 347 146 b 571 321 508 169 540 253 b 804 367 604 282 754 279 b 783 381 814 389 803 394 b 608 410 721 338 596 369 b 613 433 611 418 615 426 b 547 439 603 465 567 464 b 517 383 533 422 521 394 z "},"x":{"ha":549,"x_min":0,"x_max":0,"o":"m 300 481 b 256 532 275 508 269 526 b 193 519 238 539 213 536 b 99 435 179 508 111 447 b 86 379 82 417 72 394 b 196 428 103 357 160 404 b 204 410 200 421 201 414 b 75 204 167 371 28 247 b 276 318 124 158 233 279 b 440 213 329 275 375 239 b 496 290 483 194 542 221 b 375 396 464 338 417 367 b 543 582 403 421 619 571 b 300 481 458 594 376 524 z "},"y":{"ha":583,"x_min":0,"x_max":0,"o":"m 221 -256 b 472 256 392 -106 444 88 b 663 354 540 292 642 342 b 660 385 690 371 694 386 b 483 331 625 383 546 357 b 525 536 496 413 504 483 b 494 607 536 567 525 600 b 418 557 461 614 433 589 b 303 371 396 507 347 415 b 213 507 129 194 154 351 b 171 563 225 538 201 560 b 72 256 104 569 29 360 b 397 356 132 113 304 256 b 368 265 393 338 390 278 b -26 -132 236 190 53 24 b 221 -256 -149 -369 57 -400 z m 372 207 b 156 -200 351 111 303 -90 b 67 -118 39 -289 -14 -249 b 372 207 150 15 261 122 z "},"z":{"ha":517,"x_min":0,"x_max":0,"o":"m 229 567 b 139 531 193 557 161 544 b 75 396 101 506 81 433 b 107 367 74 375 93 372 b 172 404 126 360 153 369 b 274 490 218 468 192 479 b 322 435 342 499 411 490 b 99 281 268 400 168 336 b 136 144 18 215 43 151 b 428 156 235 139 375 200 b 422 253 467 196 471 238 b 174 233 365 271 242 244 b 457 571 244 288 657 483 b 229 567 413 590 311 586 z "},"€":{"ha":843,"x_min":0,"x_max":0,"o":"m 443 671 b 735 776 494 732 729 944 b 746 651 736 749 703 647 b 707 944 804 657 907 938 b 369 735 593 949 439 833 b 169 647 292 625 263 679 b 131 599 144 639 133 621 b 253 556 128 544 211 554 b 225 499 246 536 238 517 b 90 400 190 486 60 456 b 193 400 103 375 157 408 b 813 297 82 -103 554 -42 b 781 328 843 338 818 350 b 314 196 651 261 394 79 b 304 401 274 254 285 326 l 479 404 b 551 447 544 407 551 436 b 500 497 551 475 529 489 b 339 500 454 508 390 504 b 374 564 350 521 364 542 b 525 575 415 567 481 569 b 565 651 575 582 628 626 b 443 671 529 667 465 668 z "},"¤":{"ha":564,"x_min":0,"x_max":0,"o":"m 182 288 b 146 251 171 275 160 263 b 104 183 126 236 86 206 b 269 236 131 150 192 253 b 354 258 292 231 331 251 b 483 213 374 233 444 147 b 424 300 465 243 444 272 b 496 503 489 396 517 399 b 574 579 519 531 547 554 b 544 622 607 611 585 646 b 444 547 511 603 475 572 b 315 560 386 594 399 597 b 200 622 301 583 236 671 b 275 518 172 586 253 538 b 182 288 208 450 169 371 z m 289 418 b 422 454 326 518 367 506 b 289 418 475 404 211 215 z "},"™":{"ha":667,"x_min":0,"x_max":0,"o":"m 665 919 b 685 919 683 947 690 953 b 700 833 679 888 678 856 b 753 869 724 811 763 843 b 613 929 769 1035 767 1117 b 613 990 611 949 614 971 b 558 996 611 1025 581 1033 b 476 838 529 946 497 890 b 515 824 461 799 497 793 b 533 861 521 836 525 849 b 560 903 540 875 551 889 b 665 919 607 836 631 865 z m 439 969 b 517 990 464 976 492 982 b 504 1038 561 1003 549 1046 b 360 1015 457 1031 407 1025 b 336 956 296 1003 285 943 b 388 964 353 958 369 960 b 367 840 379 922 371 882 b 406 814 364 806 394 764 z "},"ƒ":{"ha":-1,"x_min":0,"x_max":0,"o":"m 688 -57 b 650 -85 672 -64 654 -72 l 665 -94 b 764 25 838 -103 871 -18 b -653 -26 490 133 -325 39 b -1069 -181 -719 -40 -1097 -117 b -1024 -200 -1064 -197 -1047 -201 b -614 -112 -1001 -197 -686 -124 b 688 -57 -275 -57 371 3 z m 1049 -94 b 994 15 1207 -101 1144 49 b 1049 -94 893 -8 889 -86 z "},"±":{"ha":553,"x_min":0,"x_max":0,"o":"m 438 538 b 421 693 444 574 474 694 b 376 658 399 693 385 678 b 340 540 358 619 351 579 b 186 496 304 540 204 551 b 203 454 182 478 188 461 b 319 435 239 439 281 442 b 303 304 314 410 290 319 b 363 304 310 275 343 278 b 410 442 382 331 400 410 b 567 490 444 444 557 444 b 533 531 571 514 554 526 b 438 538 503 538 468 533 z m 415 143 b 421 228 485 164 485 217 b 206 224 365 238 265 236 b 192 131 135 213 86 133 b 415 143 250 129 360 125 z "},":":{"ha":331,"x_min":0,"x_max":0,"o":"m 217 544 b 347 553 178 431 339 450 b 217 544 353 633 249 635 z m 161 282 b 292 290 122 168 283 188 b 161 282 297 371 192 372 z "},"…":{"ha":869,"x_min":0,"x_max":0,"o":"m 126 201 b 258 210 89 88 250 107 b 126 201 264 290 158 292 z m 365 201 b 497 210 328 88 489 107 b 365 201 503 290 397 292 z m 607 201 b 739 210 569 88 731 107 b 607 201 744 290 639 292 z "},"\"":{"ha":368,"x_min":0,"x_max":0,"o":"m 379 835 b 386 800 376 821 371 806 b 486 1007 458 775 504 971 b 447 1024 478 1022 467 1026 b 403 965 418 1018 407 993 z m 258 835 b 265 800 256 821 250 806 b 365 1007 338 775 383 971 b 326 1024 357 1022 346 1026 b 282 965 297 1018 286 993 z "},"”":{"ha":368,"x_min":0,"x_max":0,"o":"m 379 835 b 386 800 376 821 371 806 b 486 1007 458 775 504 971 b 447 1024 478 1022 467 1026 b 403 965 418 1018 407 993 z m 258 835 b 265 800 256 821 250 806 b 365 1007 338 775 383 971 b 326 1024 357 1022 346 1026 b 282 965 297 1018 286 993 z "},"“":{"ha":368,"x_min":0,"x_max":0,"o":"m 386 1008 b 379 1043 389 1022 394 1038 b 279 836 307 1068 261 872 b 318 819 288 821 299 817 b 363 878 347 825 358 850 z m 507 1008 b 500 1043 510 1022 515 1038 b 400 836 428 1068 382 872 b 439 819 408 821 419 817 b 483 878 468 825 479 850 z "},"’":{"ha":238,"x_min":0,"x_max":0,"o":"m 249 835 b 256 800 246 821 240 806 b 356 1007 328 775 374 971 b 317 1024 347 1022 336 1026 b 272 965 288 1018 276 993 z "},"‘":{"ha":238,"x_min":0,"x_max":0,"o":"m 369 1008 b 363 1043 372 1022 378 1038 b 263 836 290 1068 244 872 b 301 819 271 821 282 817 b 346 878 331 825 342 850 z "},"":{"ha":4446,"x_min":0,"x_max":0,"o":"m 932 1014 b 940 1064 944 1026 950 1050 b 867 1110 947 1097 907 1133 b 363 299 792 1075 511 393 b 268 593 211 194 261 558 b 250 910 281 651 349 922 b 197 874 229 910 214 897 b 143 558 178 839 154 604 b 4 31 132 382 60 194 b 17 -18 -1 6 -3 -6 b 176 264 65 -64 158 229 b 226 207 200 251 207 229 b 624 500 340 75 492 240 b 633 476 647 546 643 522 b 600 31 617 347 551 136 b 746 53 644 -42 764 -29 b 932 1014 717 369 843 700 z m 2899 18 b 2946 -99 2800 -6 2793 -87 b 2899 18 3110 -99 3044 42 z m 2664 18 b 1247 -29 2394 136 1565 42 b 826 -182 1172 -42 793 -124 b 869 -206 833 -206 846 -206 b 1288 -111 890 -206 1201 -124 b 2588 -64 1614 -64 2274 -6 b 2546 -87 2578 -64 2549 -75 l 2571 -99 b 2664 18 2732 -111 2772 -18 z m 2718 629 b 2621 617 2729 688 2633 675 b 2718 629 2607 546 2701 558 z m 3490 1014 b 3446 981 3468 1014 3453 1003 b 3278 558 3413 933 3289 558 b 3115 569 3240 593 3169 593 b 2925 369 3029 533 2956 464 b 2667 439 2788 286 2564 100 b 2635 511 2689 489 2667 500 b 2550 382 2599 511 2575 439 b 2363 439 2458 335 2376 335 b 2385 546 2358 476 2378 511 b 2318 569 2394 593 2338 604 b 2168 347 2269 500 2215 418 b 2068 382 2056 207 2044 207 b 2024 511 2088 476 2086 522 b 1963 382 1988 500 1975 439 b 1963 382 1963 382 1963 382 b 1707 335 1865 299 1690 136 b 1836 851 1725 476 1826 804 b 1851 933 1843 886 1847 910 b 1817 981 1844 957 1836 969 b 1750 944 1792 981 1765 969 b 1575 382 1696 851 1611 558 b 1551 369 1575 382 1563 382 b 1328 489 1381 286 1360 311 b 1310 522 1332 511 1322 522 b 1108 569 1233 533 1247 604 b 1004 171 788 476 771 65 b 1247 382 1085 217 1183 299 b 1269 324 1256 357 1265 347 b 1443 240 1303 251 1353 207 b 1575 324 1481 264 1533 286 b 1963 324 1564 31 1807 136 b 1967 229 1958 299 1963 264 b 2147 182 1983 136 2057 100 b 2288 357 2188 217 2253 311 b 2540 335 2353 276 2444 264 b 2529 276 2535 311 2529 286 b 2608 157 2529 217 2567 171 b 2911 311 2710 124 2818 207 b 2903 264 2910 299 2906 276 b 3219 264 2915 100 3101 157 b 3219 42 3207 207 3181 75 b 3282 53 3250 18 3274 18 b 3432 629 3326 157 3394 500 b 3515 969 3457 744 3506 863 b 3490 1014 3521 992 3514 1014 z m 1044 311 b 985 357 976 264 944 276 b 1231 464 1038 451 1183 533 b 1044 311 1172 418 1114 357 z m 3239 418 b 3025 347 3192 357 3006 194 b 3264 489 3046 451 3213 581 b 3239 418 3272 464 3251 428 z m 4231 393 b 4104 406 4199 406 4151 406 b 4065 439 4082 406 4033 406 b 4228 489 4106 464 4168 489 b 4317 522 4274 489 4307 476 b 3944 428 4371 675 4017 558 b 3935 382 3932 418 3926 393 b 3924 382 3924 382 3924 382 b 3538 276 3844 335 3536 157 b 3783 439 3638 299 3731 357 b 3440 324 3913 617 3549 617 b 3524 146 3414 240 3442 157 b 3938 335 3635 111 3861 251 b 3951 347 3951 347 3951 347 b 3961 335 3951 347 3964 347 b 4149 335 4017 324 4079 335 b 4146 264 4217 324 4244 286 b 3950 217 4072 240 3979 251 b 3992 136 3931 182 3969 146 b 4231 393 4275 100 4415 369 z m 3708 476 b 3556 357 3697 418 3606 369 b 3708 476 3567 418 3640 489 z "},"$":{"ha":660,"x_min":0,"x_max":0,"o":"m 596 907 b 596 1038 603 938 638 1033 b 456 863 535 1044 540 897 b 150 650 346 817 226 749 b 351 472 19 482 297 513 l 299 283 b 165 269 229 306 181 317 b 275 171 161 197 218 186 b 254 51 265 129 257 90 b 329 51 254 7 314 0 b 365 169 342 90 353 131 b 476 544 632 213 729 417 b 564 786 494 599 536 746 b 640 790 590 790 617 800 b 615 732 626 771 601 754 b 763 813 643 679 749 753 b 596 907 782 906 676 906 z m 436 732 b 381 572 417 679 400 625 b 328 579 363 575 346 576 b 326 675 233 592 219 604 b 436 732 364 700 404 719 z m 446 443 b 403 299 563 404 538 303 b 446 443 417 347 431 394 z "},"!":{"ha":285,"x_min":0,"x_max":0,"o":"m 275 399 b 392 933 346 738 392 844 b 357 976 393 961 383 971 b 296 946 331 982 313 972 b 258 876 283 924 268 899 b 183 319 214 779 88 374 b 275 399 231 293 263 351 z m 119 147 b 242 125 100 56 197 31 b 119 147 293 239 144 264 z "},"#":{"ha":781,"x_min":0,"x_max":0,"o":"m 371 -43 b 461 -37 388 -99 429 -99 b 544 211 494 28 515 125 b 726 271 579 213 749 213 b 575 313 707 324 626 313 b 617 432 588 353 604 392 b 740 435 658 432 699 431 b 781 494 776 439 799 465 b 654 551 758 533 699 543 b 631 739 665 601 703 733 b 586 707 610 740 594 725 b 521 553 558 657 540 604 l 400 553 b 379 694 404 589 436 701 b 294 542 335 689 308 579 b 146 476 258 529 175 513 b 133 443 139 467 133 456 b 256 408 135 386 215 406 l 229 299 b 101 268 188 290 142 283 b 100 183 31 243 21 183 l 196 183 b 190 110 193 160 190 132 b 271 124 192 63 250 50 b 294 194 278 147 288 171 b 397 201 328 196 364 197 b 371 -43 386 149 350 24 z m 476 428 l 439 315 b 328 306 401 313 365 308 b 364 421 339 344 349 383 b 476 428 401 422 438 424 z "}}}
